<svg id="visual" viewBox="0 0 900 600" width="900" height="600" xmlns="http://www.w3.org/2000/svg" xmlns:xlink="http://www.w3.org/1999/xlink" version="1.1"><g><g transform="translate(160 452)"><path d="M88.5 -29.1C99.5 5.1 82.7 47.9 52.2 69.6C21.6 91.2 -22.7 91.7 -53.7 70C-84.8 48.4 -102.7 4.6 -91.5 -29.8C-80.3 -64.1 -40.2 -89.1 -0.7 -88.9C38.7 -88.6 77.5 -63.2 88.5 -29.1Z" stroke="#ffffff" fill="none" stroke-width="20"></path></g><g transform="translate(721 292)"><path d="M49.3 -15.3C57 7.6 51.5 35.5 34.9 47.4C18.3 59.4 -9.4 55.3 -30 40.5C-50.5 25.8 -63.8 0.4 -57.6 -20.6C-51.4 -41.5 -25.7 -57.9 -2.4 -57.1C20.8 -56.3 41.6 -38.3 49.3 -15.3Z" stroke="#ffffff" fill="none" stroke-width="20"></path></g><g transform="translate(222 102)"><path d="M93.9 -30.5C105 3.7 85.8 47.7 52.4 72C18.9 96.2 -28.8 100.7 -61.2 78.5C-93.7 56.3 -110.9 7.3 -98.1 -29.1C-85.4 -65.6 -42.7 -89.5 -0.6 -89.3C41.4 -89.1 82.8 -64.7 93.9 -30.5Z" stroke="#ffffff" fill="none" stroke-width="20"></path></g></g></svg>